<?xml version="1.0" encoding="utf-8"?>
<!-- Generator: Adobe Illustrator 22.1.0, SVG Export Plug-In . SVG Version: 6.00 Build 0)  -->
<svg version="1.1" xmlns="http://www.w3.org/2000/svg" xmlns:xlink="http://www.w3.org/1999/xlink" x="0px" y="0px"
	 viewBox="0 0 841.9 283.5" style="enable-background:new 0 0 841.9 283.5;" xml:space="preserve">
<style type="text/css">
	.st0{display:none;}
	.st1{display:inline;fill:#FFFFFF;}
	.st2{fill:#C9030A;}
</style>
<g id="fondo_mesa" class="st0">
	<rect id="mesa" x="-7.3" y="-5.8" class="st1" width="855" height="295"/>
</g>
<g id="LOGO">
	<g>
		<g>
			<polygon class="st2" points="203.7,71.9 185,90.6 203.2,108.8 203.2,153 222.4,133.9 222.4,90.6 			"/>
			<g>
				<path class="st2" d="M266,134.2l-26.5-26.5L221,126.2l13.1,13.1c3.8,3.8,4.4,5.4,1.4,8.4l-28.7,28.7c-3.6,3.6-5.2,2.1-8.8-1.5
					l-27-27c-2.9-2.9-2.5-4.9,1.5-8.8l13.3-13.3l-18-18l-25.8,25.8c-8,8-5.7,15.3,0.3,21.3l50.8,50.8c7.5,7.5,13.7,7.6,21.1,0.2
					l52.3-52.3C272.8,147.5,273.9,142,266,134.2z"/>
			</g>
		</g>
		<g>
			<path class="st2" d="M306.6,176.8V107h46.6v14.6h-29v13.7h29v13.3h-29v28.3H306.6z"/>
			<path class="st2" d="M390.3,148.9c-0.8,0.1,1.2,0.1-2.1,0.1h-5.9v27.8h-17.5V107h29.1c7.5,0,15.3-0.1,21.6,6.6
				c3.9,4.2,5.7,9.3,5.7,14.1c0,4.8-1.3,9.4-4.7,12.9c-4,4.2-7.3,5-13.3,6.5 M382.3,137.5h10.6c11.2,0,11.2-7.5,11.2-8.3
				c0-1,0-8.3-11.2-8.3h-10.6V137.5z"/>
			<polygon class="st2" points="387.8,148.1 402.6,176.8 423.1,176.8 403.4,142.6 			"/>
			<path class="st2" d="M434.7,176.8V107h46.6v13.8h-29.1v14.5h29.1v13.3h-29.1v13.7h29.1v14.6H434.7z"/>
			<path class="st2" d="M492.8,176.8V107h17.4l17.4,29.1l17.5-29.1h17.4v69.9h-17.4v-43.7l-17.5,26.6l-17.4-26.6v43.7H492.8z"/>
			<path class="st2" d="M644.1,176.8h-20.4l-5.5-17.5h-23.8l-5.5,17.5h-20.5l26.3-69.9h23.2L644.1,176.8z M614.1,146.3l-7.8-24.7
				l-7.8,24.7H614.1z"/>
			<path class="st2" d="M677.8,149h-10.3v27.8h-17.5V107h27.8c7.5,0,15.3-0.1,21.6,6.6c3.9,4.2,5.7,9.7,5.7,14.4
				c0,4.8-1.8,10.2-5.7,14.4C693.1,149.3,685.2,149,677.8,149z M667.5,139.4h9.9c11.2,0,11.2-8.8,11.2-9.6c0-1,0-9-11.2-9h-9.9
				V139.4z"/>
		</g>
	</g>
</g>
</svg>
